<?xml version="1.0" encoding="utf-8"?>
<!-- Generator: Adobe Illustrator 28.0.0, SVG Export Plug-In . SVG Version: 6.00 Build 0)  -->
<svg version="1.1" id="レイヤー_1" xmlns="http://www.w3.org/2000/svg" xmlns:xlink="http://www.w3.org/1999/xlink" x="0px"
	 y="0px" viewBox="0 0 1920 1080" style="enable-background:new 0 0 1920 1080;" xml:space="preserve">
<style type="text/css">
	.st0{fill:none;}
	.st1{enable-background:new    ;}
	.st2{fill:#00FFFF;}
</style>
<rect x="177" y="292.1" class="st0" width="1566" height="495.7"/>
<g class="st1">
	<path class="st2" d="M333.5,759.3c0-1.8,0.3-3.2,1-4.5l46.9-111.7l0.7-1l36.4-86.5c1.8-4.2,5.6-7,10.5-7c6.3,0,11.2,4.9,11.2,11.2
		c0,1.8-0.4,3.2-1.1,4.6l-2.5,6.3c20-18.2,39.9-28.4,57.1-28.4c19.2,0,31.5,8.8,31.5,25.6c0,11.5-6.6,27-19.3,48
		c-21.7,36.8-74.9,53.2-101.5,53.2c-3.2,0-6.3-0.3-9.1-0.7l-40.3,95.2c-1.8,4.2-5.6,7-10.5,7C338.4,770.5,333.5,765.6,333.5,759.3z
		 M487.2,604.6c11.2-19.2,15.8-30.1,15.8-36.8c0-3.2,0-3.2-9.1-3.2c-23.1,0-57.1,28.4-88.6,81.9C428,646.3,470,632.6,487.2,604.6z"
		/>
	<path class="st2" d="M559.6,629.5c0-7.7,2.1-17.2,6-26.2c10.5-24.2,30.5-41,53.6-44.8c-1.8-2.1-2.8-4.9-2.8-7.7
		c0-6,4.6-10.5,10.1-11.2c3.9-0.4,7.7-0.7,11.2-0.7c29.1,0,47.6,14.7,47.6,39.2c0,10.2-3.5,22.1-10.2,34.3
		c-15.8,30.1-47.3,57.8-76.7,57.8C574.3,670.1,559.6,652.6,559.6,629.5z M655.5,601.8c5.2-10.2,7.4-17.2,7.4-23.8
		c0-11.9-5.6-16.5-24.5-16.8c1.8,2.1,2.8,4.5,2.8,7.3c0,6.3-4.9,11.2-11.2,11.2c-19.6,0-34.7,11.2-44.1,31.9
		c-2.4,7-3.9,12.3-3.9,17.9c0,13.3,4.2,18.2,16.5,18.2C618.4,647.7,641.9,627.4,655.5,601.8z"/>
	<path class="st2" d="M777.3,652.2c0-10.9,9.8-30.5,24.2-60.9c1.8-3.5,2.5-6,3.1-7.4c-0.7,0.7-2.1,0.7-5.9,0.4
		c-9.5-0.7-17.5-1.4-24.9-2.5l-1.8,2.1L750,602.2c-2.1,1.8-4.6,2.8-7.4,2.8c-6.3,0-11.2-4.9-11.2-11.2c0-3.5,1.4-6.7,3.8-8.4
		l10.5-8.8c-8.8-3.5-10.9-8.1-10.9-14c0-13,29.8-24.5,40.6-24.5c7.4,0,14.7,5.6,14.7,13.7c0,2.8-0.4,6-1.4,9.5l11.2,0.7
		c16.1,1,27,6.3,27,20.3c0,4.6-1.8,10.9-5.2,18.9c-8.1,16.8-14,29.1-17.5,37.8c5.2-4.2,12.2-10.2,22.8-18.9c10.9-9.5,24.5-21,42-35
		c1.8-1.4,4.2-2.5,7-2.5c6.3,0,11.2,4.9,11.2,11.2c0,3.5-1.8,6.6-4.2,8.8c-17.1,14-30.8,25.2-41.7,34.7
		c-25.2,21-36.4,30.8-48.7,30.8C783.6,668,777.3,661.7,777.3,652.2z"/>
	<path class="st2" d="M876.7,652.2c0-11.9,11.6-36.4,33.3-81.2h-7.7c-6.3,0-11.2-4.9-11.2-11.2c0-6.3,4.9-11.2,11.2-11.2h9.5
		c2.8,0,6,0,9.1,0l1.4-2.8l7.7-15.8c1.8-3.9,5.6-6.7,10.2-6.7c6.3,0,11.2,4.9,11.2,11.2c0,1.8-0.4,3.5-1,5.2l-4.2,8.4
		c11.6-0.4,23.1-1.4,33.6-3.2l2.1-0.3c6.3,0,11.2,4.9,11.2,11.2c0,5.6-3.8,10.2-9.5,11.2c-15,2.8-31.9,3.5-48.7,3.8
		c-17.9,37.1-28.7,59.5-33.3,71.8c15.1-6.7,42.7-24.9,92.4-58.5c1.8-1,3.9-1.8,6.3-1.8c6.3,0,11.2,4.9,11.2,11.2
		c0,3.8-2.1,7.3-5.2,9.5c-63.4,42.7-95.2,64.4-113.8,64.8C883.4,668.3,876.7,661.7,876.7,652.2z"/>
	<path class="st2" d="M949.9,754.1c0-6.3,2.8-13.3,7.4-23.1l154.7-326.2c1.8-3.8,5.6-6.6,10.2-6.6c6.3,0,11.2,4.9,11.2,11.2
		c0,1.8-0.3,3.5-1,4.9L1051,585.4c14.7,2.5,27.7,3.8,39.2,3.8c13,0,20.7-1.4,25.9-4.9c1.8-1,3.9-1.8,6.3-1.8
		c6.3,0,11.2,4.9,11.2,11.2c0,3.8-2.1,7.3-5.2,9.5c-9.1,6-22.8,8.4-38.2,8.4c-11.5,0-24.5-1.4-38.5-3.5c7,23.8,15.8,55.3,15.8,73.5
		c0,4.9-0.7,9.5-1.8,12.6c-17.2,44.1-81.2,76.3-97.7,76.3C956.5,770.5,949.9,763.9,949.9,754.1z M1044.7,685.8
		c0.3-0.7,0.3-1.4,0.3-4.2c0-13.3-5.9-36.4-12.2-57.8l-55.3,116.9l-2.8,5.6C992.2,740.1,1033.2,716.3,1044.7,685.8z"/>
	<path class="st2" d="M1133.6,629.5c0-7.7,2.1-17.2,6-26.2c10.5-24.2,30.5-41,53.6-44.8c-1.8-2.1-2.8-4.9-2.8-7.7
		c0-6,4.6-10.5,10.2-11.2c3.8-0.4,7.7-0.7,11.2-0.7c29.1,0,47.6,14.7,47.6,39.2c0,10.2-3.5,22.1-10.2,34.3
		c-15.8,30.1-47.2,57.8-76.7,57.8C1148.3,670.1,1133.6,652.6,1133.6,629.5z M1229.5,601.8c5.2-10.2,7.3-17.2,7.3-23.8
		c0-11.9-5.6-16.5-24.5-16.8c1.8,2.1,2.8,4.5,2.8,7.3c0,6.3-4.9,11.2-11.2,11.2c-19.6,0-34.7,11.2-44.1,31.9
		c-2.4,7-3.8,12.3-3.8,17.9c0,13.3,4.2,18.2,16.5,18.2C1192.4,647.7,1215.9,627.4,1229.5,601.8z"/>
	<path class="st2" d="M1279.2,657.1c0-8.8,5.6-21,12.2-35.4l91-191.1c2.8-5.9,4.2-9.5,4.6-11.9c-0.7,0.3-2.4,0.7-6.3,0.7
		c-28,0-98.7,26.3-159.3,74.6c-2.1,1.4-4.2,2.5-7,2.5c-6.3,0-11.2-4.9-11.2-11.2c0-3.5,1.8-6.7,4.2-8.8
		c64.1-51.1,140.4-79.5,173.3-79.5c18.9,0,28.7,7.4,28.7,20.7c0,6-2.4,13.3-6.7,22.8l-91,191.1c-4.9,10.5-8.4,17.8-9.4,22.4
		c9.4-2.1,45.2-29.8,91-68.6c2.1-1.8,4.5-2.8,7.3-2.8c6.3,0,11.2,4.9,11.2,11.2c0,3.5-1.4,6.6-3.8,8.8
		c-48.3,40.6-89.3,73.5-106.1,73.9C1286.6,676.7,1279.2,668.3,1279.2,657.1z"/>
	<path class="st2" d="M1401,651.9c0-12.6,12.6-38.2,35.4-85.8l5.2-10.9c1.8-3.8,5.6-6.7,10.2-6.7c6.3,0,11.2,4.9,11.2,11.2
		c0,1.8-0.3,3.5-1,4.9l-5.2,11.2c-16.5,34-26.6,55-30.8,66.5c13.3-6.7,38.2-24.9,81.9-57.8c1.8-1.4,4.2-2.1,6.7-2.1
		c6.3,0,11.2,4.9,11.2,11.2c0,3.5-1.8,7-4.6,9.1c-56.7,42.4-86.5,64.8-104,65.1C1407.6,668.3,1401,661.7,1401,651.9z M1458.8,517.5
		c0-1.8,0.3-3.5,1.4-5.2l17.5-35.4c1.8-3.8,5.6-6.3,10.2-6.3c6.3,0,11.2,4.9,11.2,11.2c0,1.8-0.3,3.5-1.4,5.2l-17.5,35.4
		c-1.8,3.8-5.6,6.3-10.2,6.3C1463.7,528.7,1458.8,523.8,1458.8,517.5z"/>
	<path class="st2" d="M1525.6,629.5c0-7.7,2.1-17.2,6-26.2c10.5-24.2,30.4-41,53.6-44.8c-1.8-2.1-2.8-4.9-2.8-7.7
		c0-6,4.6-10.5,10.2-11.2c3.8-0.4,7.7-0.7,11.2-0.7c29.1,0,47.6,14.7,47.6,39.2c0,10.2-3.5,22.1-10.2,34.3
		c-15.8,30.1-47.2,57.8-76.7,57.8C1540.3,670.1,1525.6,652.6,1525.6,629.5z M1621.5,601.8c5.2-10.2,7.3-17.2,7.3-23.8
		c0-11.9-5.6-16.5-24.5-16.8c1.8,2.1,2.8,4.5,2.8,7.3c0,6.3-4.9,11.2-11.2,11.2c-19.6,0-34.7,11.2-44.1,31.9
		c-2.4,7-3.8,12.3-3.8,17.9c0,13.3,4.2,18.2,16.5,18.2C1584.4,647.7,1607.8,627.4,1621.5,601.8z"/>
</g>
</svg>
